<mxfile host="65bd71144e">
    <diagram id="nIQTSJ8VIpDHFJpWRGdl" name="Pagina-1">
        <mxGraphModel dx="2478" dy="912" grid="1" gridSize="10" guides="1" tooltips="1" connect="1" arrows="1" fold="1" page="1" pageScale="1" pageWidth="827" pageHeight="1169" math="0" shadow="0">
            <root>
                <mxCell id="0"/>
                <mxCell id="1" parent="0"/>
                <mxCell id="6" value="Name" style="shape=table;startSize=30;container=1;collapsible=0;childLayout=tableLayout;fixedRows=1;rowLines=0;fontStyle=1;align=center;pointerEvents=1;" parent="1" vertex="1">
                    <mxGeometry x="200" y="100" width="490" height="120" as="geometry"/>
                </mxCell>
                <mxCell id="7" value="" style="shape=partialRectangle;html=1;whiteSpace=wrap;collapsible=0;dropTarget=0;pointerEvents=1;fillColor=none;top=0;left=0;bottom=1;right=0;points=[[0,0.5],[1,0.5]];portConstraint=eastwest;" parent="6" vertex="1">
                    <mxGeometry y="30" width="490" height="30" as="geometry"/>
                </mxCell>
                <mxCell id="8" value="1" style="shape=partialRectangle;html=1;whiteSpace=wrap;connectable=0;fillColor=none;top=0;left=0;bottom=0;right=0;overflow=hidden;pointerEvents=1;" parent="7" vertex="1">
                    <mxGeometry width="108" height="30" as="geometry">
                        <mxRectangle width="108" height="30" as="alternateBounds"/>
                    </mxGeometry>
                </mxCell>
                <mxCell id="9" value="name" style="shape=partialRectangle;html=1;whiteSpace=wrap;connectable=0;fillColor=none;top=0;left=0;bottom=0;right=0;align=left;spacingLeft=6;overflow=hidden;pointerEvents=1;" parent="7" vertex="1">
                    <mxGeometry x="108" width="382" height="30" as="geometry">
                        <mxRectangle width="382" height="30" as="alternateBounds"/>
                    </mxGeometry>
                </mxCell>
                <mxCell id="10" value="" style="shape=partialRectangle;html=1;whiteSpace=wrap;collapsible=0;dropTarget=0;pointerEvents=1;fillColor=none;top=0;left=0;bottom=0;right=0;points=[[0,0.5],[1,0.5]];portConstraint=eastwest;" parent="6" vertex="1">
                    <mxGeometry y="60" width="490" height="30" as="geometry"/>
                </mxCell>
                <mxCell id="11" value="2" style="shape=partialRectangle;html=1;whiteSpace=wrap;connectable=0;fillColor=none;top=0;left=0;bottom=0;right=0;overflow=hidden;pointerEvents=1;" parent="10" vertex="1">
                    <mxGeometry width="108" height="30" as="geometry">
                        <mxRectangle width="108" height="30" as="alternateBounds"/>
                    </mxGeometry>
                </mxCell>
                <mxCell id="12" value="cognome" style="shape=partialRectangle;html=1;whiteSpace=wrap;connectable=0;fillColor=none;top=0;left=0;bottom=0;right=0;align=left;spacingLeft=6;overflow=hidden;pointerEvents=1;" parent="10" vertex="1">
                    <mxGeometry x="108" width="382" height="30" as="geometry">
                        <mxRectangle width="382" height="30" as="alternateBounds"/>
                    </mxGeometry>
                </mxCell>
                <mxCell id="13" value="" style="shape=partialRectangle;html=1;whiteSpace=wrap;collapsible=0;dropTarget=0;pointerEvents=1;fillColor=none;top=0;left=0;bottom=0;right=0;points=[[0,0.5],[1,0.5]];portConstraint=eastwest;" parent="6" vertex="1">
                    <mxGeometry y="90" width="490" height="30" as="geometry"/>
                </mxCell>
                <mxCell id="14" value="3" style="shape=partialRectangle;html=1;whiteSpace=wrap;connectable=0;fillColor=none;top=0;left=0;bottom=0;right=0;overflow=hidden;pointerEvents=1;" parent="13" vertex="1">
                    <mxGeometry width="108" height="30" as="geometry">
                        <mxRectangle width="108" height="30" as="alternateBounds"/>
                    </mxGeometry>
                </mxCell>
                <mxCell id="15" value="titolo" style="shape=partialRectangle;html=1;whiteSpace=wrap;connectable=0;fillColor=none;top=0;left=0;bottom=0;right=0;align=left;spacingLeft=6;overflow=hidden;pointerEvents=1;" parent="13" vertex="1">
                    <mxGeometry x="108" width="382" height="30" as="geometry">
                        <mxRectangle width="382" height="30" as="alternateBounds"/>
                    </mxGeometry>
                </mxCell>
                <mxCell id="16" value="Genere" style="rounded=0;whiteSpace=wrap;html=1;" parent="1" vertex="1">
                    <mxGeometry x="200" y="240" width="490" height="30" as="geometry"/>
                </mxCell>
                <mxCell id="20" value="Localization" style="swimlane;startSize=20;horizontal=1;containerType=tree;newEdgeStyle={&quot;edgeStyle&quot;:&quot;elbowEdgeStyle&quot;,&quot;startArrow&quot;:&quot;none&quot;,&quot;endArrow&quot;:&quot;none&quot;};" parent="1" vertex="1">
                    <mxGeometry x="200" y="300" width="490" height="330" as="geometry">
                        <mxRectangle x="200" y="300" width="480" height="20" as="alternateBounds"/>
                    </mxGeometry>
                </mxCell>
                <mxCell id="21" value="" style="edgeStyle=elbowEdgeStyle;elbow=vertical;startArrow=none;endArrow=none;rounded=0;" parent="20" source="23" target="24" edge="1">
                    <mxGeometry relative="1" as="geometry"/>
                </mxCell>
                <mxCell id="22" value="" style="edgeStyle=elbowEdgeStyle;elbow=vertical;startArrow=none;endArrow=none;rounded=0;" parent="20" source="23" target="25" edge="1">
                    <mxGeometry relative="1" as="geometry"/>
                </mxCell>
                <UserObject label="Localization" treeRoot="1" id="23">
                    <mxCell style="whiteSpace=wrap;html=1;align=center;treeFolding=1;treeMoving=1;newEdgeStyle={&quot;edgeStyle&quot;:&quot;elbowEdgeStyle&quot;,&quot;startArrow&quot;:&quot;none&quot;,&quot;endArrow&quot;:&quot;none&quot;};" parent="20" vertex="1">
                        <mxGeometry x="140" y="40" width="120" height="60" as="geometry"/>
                    </mxCell>
                </UserObject>
                <mxCell id="162" style="edgeStyle=none;rounded=0;html=1;exitX=0.5;exitY=1;exitDx=0;exitDy=0;fontSize=10;fontColor=#000000;" parent="20" source="24" target="161" edge="1">
                    <mxGeometry relative="1" as="geometry"/>
                </mxCell>
                <mxCell id="24" value="arrivo_venezia" style="whiteSpace=wrap;html=1;align=center;verticalAlign=middle;treeFolding=1;treeMoving=1;newEdgeStyle={&quot;edgeStyle&quot;:&quot;elbowEdgeStyle&quot;,&quot;startArrow&quot;:&quot;none&quot;,&quot;endArrow&quot;:&quot;none&quot;};" parent="20" vertex="1">
                    <mxGeometry x="20" y="140" width="100" height="60" as="geometry"/>
                </mxCell>
                <mxCell id="25" value="parrocchia&lt;br&gt;abitazione" style="whiteSpace=wrap;html=1;align=center;verticalAlign=middle;treeFolding=1;treeMoving=1;newEdgeStyle={&quot;edgeStyle&quot;:&quot;elbowEdgeStyle&quot;,&quot;startArrow&quot;:&quot;none&quot;,&quot;endArrow&quot;:&quot;none&quot;};fillColor=#f8cecc;strokeColor=#b85450;" parent="20" vertex="1">
                    <mxGeometry x="150" y="140" width="100" height="60" as="geometry"/>
                </mxCell>
                <mxCell id="28" value="" style="edgeStyle=elbowEdgeStyle;html=1;elbow=vertical;startArrow=none;endArrow=none;rounded=0;" parent="20" source="23" target="29" edge="1">
                    <mxGeometry relative="1" as="geometry"/>
                </mxCell>
                <UserObject label="mobilitÃ &lt;br&gt;intra-urbana" treeRoot="1" id="29">
                    <mxCell style="whiteSpace=wrap;html=1;align=center;treeFolding=1;treeMoving=1;newEdgeStyle={&quot;edgeStyle&quot;:&quot;elbowEdgeStyle&quot;,&quot;startArrow&quot;:&quot;none&quot;,&quot;endArrow&quot;:&quot;none&quot;};" parent="20" vertex="1" collapsed="1">
                        <mxGeometry x="270" y="140" width="100" height="60" as="geometry"/>
                    </mxCell>
                </UserObject>
                <mxCell id="30" value="" style="edgeStyle=elbowEdgeStyle;html=1;elbow=vertical;startArrow=none;endArrow=none;rounded=0;" parent="20" source="29" target="31" edge="1">
                    <mxGeometry relative="1" as="geometry">
                        <mxPoint x="400" y="400" as="sourcePoint"/>
                    </mxGeometry>
                </mxCell>
                <UserObject label="abitativa" treeRoot="1" id="31">
                    <mxCell style="whiteSpace=wrap;html=1;align=center;treeFolding=1;treeMoving=1;newEdgeStyle={&quot;edgeStyle&quot;:&quot;elbowEdgeStyle&quot;,&quot;startArrow&quot;:&quot;none&quot;,&quot;endArrow&quot;:&quot;none&quot;};" parent="20" vertex="1" collapsed="1">
                        <mxGeometry x="270" y="240" width="100" height="60" as="geometry"/>
                    </mxCell>
                </UserObject>
                <mxCell id="32" value="" style="edgeStyle=elbowEdgeStyle;html=1;elbow=vertical;startArrow=none;endArrow=none;rounded=0;" parent="20" source="29" target="33" edge="1">
                    <mxGeometry relative="1" as="geometry">
                        <mxPoint x="400" y="400" as="sourcePoint"/>
                    </mxGeometry>
                </mxCell>
                <UserObject label="lavorativa" treeRoot="1" id="33">
                    <mxCell style="whiteSpace=wrap;html=1;align=center;treeFolding=1;treeMoving=1;newEdgeStyle={&quot;edgeStyle&quot;:&quot;elbowEdgeStyle&quot;,&quot;startArrow&quot;:&quot;none&quot;,&quot;endArrow&quot;:&quot;none&quot;};" parent="20" vertex="1" collapsed="1">
                        <mxGeometry x="380" y="240" width="100" height="60" as="geometry"/>
                    </mxCell>
                </UserObject>
                <mxCell id="87" value="" style="strokeWidth=2;html=1;shape=mxgraph.flowchart.annotation_1;align=left;pointerEvents=1;fillColor=#f8cecc;strokeColor=#b85450;" parent="20" vertex="1">
                    <mxGeometry x="260" y="130" width="50" height="190" as="geometry"/>
                </mxCell>
                <mxCell id="161" value="&lt;font style=&quot;font-size: 10px&quot;&gt;Integrazione begin&lt;/font&gt;" style="shape=process;whiteSpace=wrap;html=1;backgroundOutline=1;glass=0;sketch=0;fontSize=12;strokeColor=#b85450;fillColor=#f8cecc;" parent="20" vertex="1">
                    <mxGeometry x="10" y="229" width="120" height="21" as="geometry"/>
                </mxCell>
                <mxCell id="34" value="Enquiry" style="rounded=0;whiteSpace=wrap;html=1;" parent="1" vertex="1">
                    <mxGeometry x="200" y="650" width="490" height="30" as="geometry"/>
                </mxCell>
                <mxCell id="37" value="Occupation" style="swimlane;startSize=20;horizontal=1;containerType=tree;newEdgeStyle={&quot;edgeStyle&quot;:&quot;elbowEdgeStyle&quot;,&quot;startArrow&quot;:&quot;none&quot;,&quot;endArrow&quot;:&quot;none&quot;};" parent="1" vertex="1">
                    <mxGeometry x="200" y="950" width="490" height="350" as="geometry">
                        <mxRectangle x="200" y="950" width="490" height="20" as="alternateBounds"/>
                    </mxGeometry>
                </mxCell>
                <mxCell id="38" value="" style="edgeStyle=elbowEdgeStyle;elbow=vertical;startArrow=none;endArrow=none;rounded=0;" parent="37" source="40" target="41" edge="1">
                    <mxGeometry relative="1" as="geometry"/>
                </mxCell>
                <mxCell id="39" value="" style="edgeStyle=elbowEdgeStyle;elbow=vertical;startArrow=none;endArrow=none;rounded=0;" parent="37" source="40" target="42" edge="1">
                    <mxGeometry relative="1" as="geometry"/>
                </mxCell>
                <UserObject label="Occupation" treeRoot="1" id="40">
                    <mxCell style="whiteSpace=wrap;html=1;align=center;treeFolding=1;treeMoving=1;newEdgeStyle={&quot;edgeStyle&quot;:&quot;elbowEdgeStyle&quot;,&quot;startArrow&quot;:&quot;none&quot;,&quot;endArrow&quot;:&quot;none&quot;};" parent="37" vertex="1">
                        <mxGeometry x="185" y="40" width="120" height="60" as="geometry"/>
                    </mxCell>
                </UserObject>
                <mxCell id="41" value="principal occupation" style="whiteSpace=wrap;html=1;align=center;verticalAlign=middle;treeFolding=1;treeMoving=1;newEdgeStyle={&quot;edgeStyle&quot;:&quot;elbowEdgeStyle&quot;,&quot;startArrow&quot;:&quot;none&quot;,&quot;endArrow&quot;:&quot;none&quot;};" parent="37" vertex="1">
                    <mxGeometry x="50" y="140" width="100" height="60" as="geometry"/>
                </mxCell>
                <mxCell id="42" value="Other occupation" style="whiteSpace=wrap;html=1;align=center;verticalAlign=middle;treeFolding=1;treeMoving=1;newEdgeStyle={&quot;edgeStyle&quot;:&quot;elbowEdgeStyle&quot;,&quot;startArrow&quot;:&quot;none&quot;,&quot;endArrow&quot;:&quot;none&quot;};" parent="37" vertex="1">
                    <mxGeometry x="280" y="140" width="100" height="60" as="geometry"/>
                </mxCell>
                <mxCell id="43" value="" style="edgeStyle=elbowEdgeStyle;elbow=vertical;startArrow=none;endArrow=none;rounded=0;" parent="37" source="42" target="44" edge="1">
                    <mxGeometry relative="1" as="geometry">
                        <mxPoint x="445" y="850" as="sourcePoint"/>
                    </mxGeometry>
                </mxCell>
                <mxCell id="44" value="diacronic" style="whiteSpace=wrap;html=1;align=center;verticalAlign=middle;treeFolding=1;treeMoving=1;newEdgeStyle={&quot;edgeStyle&quot;:&quot;elbowEdgeStyle&quot;,&quot;startArrow&quot;:&quot;none&quot;,&quot;endArrow&quot;:&quot;none&quot;};" parent="37" vertex="1">
                    <mxGeometry x="185" y="240" width="100" height="60" as="geometry"/>
                </mxCell>
                <mxCell id="45" value="" style="edgeStyle=elbowEdgeStyle;elbow=vertical;startArrow=none;endArrow=none;rounded=0;" parent="37" source="42" target="46" edge="1">
                    <mxGeometry relative="1" as="geometry">
                        <mxPoint x="445" y="850" as="sourcePoint"/>
                    </mxGeometry>
                </mxCell>
                <mxCell id="46" value="sincronic" style="whiteSpace=wrap;html=1;align=center;verticalAlign=middle;treeFolding=1;treeMoving=1;newEdgeStyle={&quot;edgeStyle&quot;:&quot;elbowEdgeStyle&quot;,&quot;startArrow&quot;:&quot;none&quot;,&quot;endArrow&quot;:&quot;none&quot;};" parent="37" vertex="1">
                    <mxGeometry x="370" y="240" width="100" height="60" as="geometry"/>
                </mxCell>
                <mxCell id="121" value="" style="strokeWidth=2;html=1;shape=mxgraph.flowchart.annotation_1;align=left;pointerEvents=1;fillColor=#f8cecc;strokeColor=#b85450;" parent="37" vertex="1">
                    <mxGeometry x="180" y="130" width="50" height="190" as="geometry"/>
                </mxCell>
                <mxCell id="122" value="" style="strokeWidth=2;html=1;shape=mxgraph.flowchart.annotation_2;align=left;labelPosition=right;pointerEvents=1;rotation=-180;fillColor=#f8cecc;strokeColor=#b85450;" parent="37" vertex="1">
                    <mxGeometry x="460" y="130" width="50" height="190" as="geometry"/>
                </mxCell>
                <mxCell id="47" value="Origin" style="swimlane;startSize=20;horizontal=1;containerType=tree;newEdgeStyle={&quot;edgeStyle&quot;:&quot;elbowEdgeStyle&quot;,&quot;startArrow&quot;:&quot;none&quot;,&quot;endArrow&quot;:&quot;none&quot;};" parent="1" vertex="1">
                    <mxGeometry x="200" y="700" width="490" height="230" as="geometry">
                        <mxRectangle x="200" y="700" width="490" height="20" as="alternateBounds"/>
                    </mxGeometry>
                </mxCell>
                <mxCell id="48" value="" style="edgeStyle=elbowEdgeStyle;elbow=vertical;startArrow=none;endArrow=none;rounded=0;" parent="47" source="50" target="51" edge="1">
                    <mxGeometry relative="1" as="geometry"/>
                </mxCell>
                <mxCell id="49" value="" style="edgeStyle=elbowEdgeStyle;elbow=vertical;startArrow=none;endArrow=none;rounded=0;" parent="47" source="50" target="52" edge="1">
                    <mxGeometry relative="1" as="geometry"/>
                </mxCell>
                <UserObject label="Origin" treeRoot="1" id="50">
                    <mxCell style="whiteSpace=wrap;html=1;align=center;treeFolding=1;treeMoving=1;newEdgeStyle={&quot;edgeStyle&quot;:&quot;elbowEdgeStyle&quot;,&quot;startArrow&quot;:&quot;none&quot;,&quot;endArrow&quot;:&quot;none&quot;};" parent="47" vertex="1">
                        <mxGeometry x="185" y="40" width="120" height="60" as="geometry"/>
                    </mxCell>
                </UserObject>
                <mxCell id="51" value="Principal -&lt;br&gt;specific" style="whiteSpace=wrap;html=1;align=center;verticalAlign=middle;treeFolding=1;treeMoving=1;newEdgeStyle={&quot;edgeStyle&quot;:&quot;elbowEdgeStyle&quot;,&quot;startArrow&quot;:&quot;none&quot;,&quot;endArrow&quot;:&quot;none&quot;};" parent="47" vertex="1">
                    <mxGeometry x="110" y="140" width="100" height="60" as="geometry"/>
                </mxCell>
                <mxCell id="52" value="Other origin -&lt;br&gt;generic" style="whiteSpace=wrap;html=1;align=center;verticalAlign=middle;treeFolding=1;treeMoving=1;newEdgeStyle={&quot;edgeStyle&quot;:&quot;elbowEdgeStyle&quot;,&quot;startArrow&quot;:&quot;none&quot;,&quot;endArrow&quot;:&quot;none&quot;};" parent="47" vertex="1">
                    <mxGeometry x="280" y="140" width="100" height="60" as="geometry"/>
                </mxCell>
                <mxCell id="58" value="EtÃ &lt;span style=&quot;color: rgba(0 , 0 , 0 , 0) ; font-family: monospace ; font-size: 0px&quot;&gt;%3CmxGraphModel%3E%3Croot%3E%3CmxCell%20id%3D%220%22%2F%3E%3CmxCell%20id%3D%221%22%20parent%3D%220%22%2F%3E%3CmxCell%20id%3D%222%22%20value%3D%22Enquiry%22%20style%3D%22rounded%3D0%3BwhiteSpace%3Dwrap%3Bhtml%3D1%3B%22%20vertex%3D%221%22%20parent%3D%221%22%3E%3CmxGeometry%20x%3D%22200%22%20y%3D%22650%22%20width%3D%22490%22%20height%3D%2230%22%20as%3D%22geometry%22%2F%3E%3C%2FmxCell%3E%3C%2Froot%3E%3C%2FmxGraphModel%3E&lt;/span&gt;" style="rounded=0;whiteSpace=wrap;html=1;" parent="1" vertex="1">
                    <mxGeometry x="200" y="1320" width="490" height="30" as="geometry"/>
                </mxCell>
                <mxCell id="66" value="Social Relationship" style="swimlane;startSize=20;horizontal=1;containerType=tree;newEdgeStyle={&quot;edgeStyle&quot;:&quot;elbowEdgeStyle&quot;,&quot;startArrow&quot;:&quot;none&quot;,&quot;endArrow&quot;:&quot;none&quot;};" parent="1" vertex="1" collapsed="1">
                    <mxGeometry x="200" y="1540" width="490" height="20" as="geometry">
                        <mxRectangle x="200" y="1540" width="490" height="220" as="alternateBounds"/>
                    </mxGeometry>
                </mxCell>
                <mxCell id="67" value="" style="edgeStyle=elbowEdgeStyle;elbow=vertical;startArrow=none;endArrow=none;rounded=0;" parent="66" source="69" target="70" edge="1">
                    <mxGeometry relative="1" as="geometry"/>
                </mxCell>
                <mxCell id="68" value="" style="edgeStyle=elbowEdgeStyle;elbow=vertical;startArrow=none;endArrow=none;rounded=0;" parent="66" source="69" target="71" edge="1">
                    <mxGeometry relative="1" as="geometry"/>
                </mxCell>
                <UserObject label="" treeRoot="1" id="69">
                    <mxCell style="whiteSpace=wrap;html=1;align=center;treeFolding=1;treeMoving=1;newEdgeStyle={&quot;edgeStyle&quot;:&quot;elbowEdgeStyle&quot;,&quot;startArrow&quot;:&quot;none&quot;,&quot;endArrow&quot;:&quot;none&quot;};" parent="66" vertex="1">
                        <mxGeometry x="185" y="40" width="120" height="60" as="geometry"/>
                    </mxCell>
                </UserObject>
                <mxCell id="70" value="" style="whiteSpace=wrap;html=1;align=center;verticalAlign=middle;treeFolding=1;treeMoving=1;newEdgeStyle={&quot;edgeStyle&quot;:&quot;elbowEdgeStyle&quot;,&quot;startArrow&quot;:&quot;none&quot;,&quot;endArrow&quot;:&quot;none&quot;};" parent="66" vertex="1">
                    <mxGeometry x="40" y="140" width="100" height="60" as="geometry"/>
                </mxCell>
                <mxCell id="71" value="" style="whiteSpace=wrap;html=1;align=center;verticalAlign=middle;treeFolding=1;treeMoving=1;newEdgeStyle={&quot;edgeStyle&quot;:&quot;elbowEdgeStyle&quot;,&quot;startArrow&quot;:&quot;none&quot;,&quot;endArrow&quot;:&quot;none&quot;};" parent="66" vertex="1">
                    <mxGeometry x="360" y="140" width="100" height="60" as="geometry"/>
                </mxCell>
                <mxCell id="72" value="Account" style="swimlane;startSize=20;horizontal=1;containerType=tree;newEdgeStyle={&quot;edgeStyle&quot;:&quot;elbowEdgeStyle&quot;,&quot;startArrow&quot;:&quot;none&quot;,&quot;endArrow&quot;:&quot;none&quot;};" parent="1" vertex="1" collapsed="1">
                    <mxGeometry x="200" y="1780" width="490" height="20" as="geometry">
                        <mxRectangle x="200" y="1780" width="490" height="220" as="alternateBounds"/>
                    </mxGeometry>
                </mxCell>
                <mxCell id="73" value="" style="edgeStyle=elbowEdgeStyle;elbow=vertical;startArrow=none;endArrow=none;rounded=0;" parent="72" source="75" target="76" edge="1">
                    <mxGeometry relative="1" as="geometry"/>
                </mxCell>
                <mxCell id="74" value="" style="edgeStyle=elbowEdgeStyle;elbow=vertical;startArrow=none;endArrow=none;rounded=0;" parent="72" source="75" target="77" edge="1">
                    <mxGeometry relative="1" as="geometry"/>
                </mxCell>
                <UserObject label="" treeRoot="1" id="75">
                    <mxCell style="whiteSpace=wrap;html=1;align=center;treeFolding=1;treeMoving=1;newEdgeStyle={&quot;edgeStyle&quot;:&quot;elbowEdgeStyle&quot;,&quot;startArrow&quot;:&quot;none&quot;,&quot;endArrow&quot;:&quot;none&quot;};" parent="72" vertex="1">
                        <mxGeometry x="185" y="40" width="120" height="60" as="geometry"/>
                    </mxCell>
                </UserObject>
                <mxCell id="76" value="" style="whiteSpace=wrap;html=1;align=center;verticalAlign=middle;treeFolding=1;treeMoving=1;newEdgeStyle={&quot;edgeStyle&quot;:&quot;elbowEdgeStyle&quot;,&quot;startArrow&quot;:&quot;none&quot;,&quot;endArrow&quot;:&quot;none&quot;};" parent="72" vertex="1">
                    <mxGeometry x="40" y="140" width="100" height="60" as="geometry"/>
                </mxCell>
                <mxCell id="77" value="" style="whiteSpace=wrap;html=1;align=center;verticalAlign=middle;treeFolding=1;treeMoving=1;newEdgeStyle={&quot;edgeStyle&quot;:&quot;elbowEdgeStyle&quot;,&quot;startArrow&quot;:&quot;none&quot;,&quot;endArrow&quot;:&quot;none&quot;};" parent="72" vertex="1">
                    <mxGeometry x="360" y="140" width="100" height="60" as="geometry"/>
                </mxCell>
                <mxCell id="78" value="" style="shape=curlyBracket;whiteSpace=wrap;html=1;rounded=1;fillColor=#f5f5f5;fontColor=#333333;strokeColor=#666666;" parent="1" vertex="1">
                    <mxGeometry x="100" y="100" width="60" height="1250" as="geometry"/>
                </mxCell>
                <mxCell id="79" value="Person" style="text;strokeColor=#FFFFFF;fillColor=none;html=1;fontSize=24;fontStyle=1;verticalAlign=middle;align=center;rotation=-90;fontColor=#ADADAD;" parent="1" vertex="1">
                    <mxGeometry x="20" y="700" width="100" height="40" as="geometry"/>
                </mxCell>
                <mxCell id="84" value="" style="sketch=0;pointerEvents=1;shadow=0;dashed=0;html=1;strokeColor=none;fillColor=#434445;aspect=fixed;labelPosition=center;verticalLabelPosition=bottom;verticalAlign=top;align=center;outlineConnect=0;shape=mxgraph.vvd.networking;" parent="1" vertex="1">
                    <mxGeometry x="760" y="472" width="50" height="50" as="geometry"/>
                </mxCell>
                <mxCell id="89" value="" style="strokeWidth=2;html=1;shape=mxgraph.flowchart.annotation_2;align=left;labelPosition=right;pointerEvents=1;rotation=-180;fillColor=#f8cecc;strokeColor=#b85450;" parent="1" vertex="1">
                    <mxGeometry x="669.21" y="429.99" width="50" height="190" as="geometry"/>
                </mxCell>
                <mxCell id="96" value="" style="sketch=0;pointerEvents=1;shadow=0;dashed=0;html=1;strokeColor=none;fillColor=#434445;aspect=fixed;labelPosition=center;verticalLabelPosition=bottom;verticalAlign=top;align=center;outlineConnect=0;shape=mxgraph.vvd.nsx_controller;fontColor=#ADADAD;" parent="1" vertex="1">
                    <mxGeometry x="760" y="534.27" width="50" height="50" as="geometry"/>
                </mxCell>
                <mxCell id="97" value="Origin" style="swimlane;startSize=20;horizontal=1;containerType=tree;newEdgeStyle={&quot;edgeStyle&quot;:&quot;elbowEdgeStyle&quot;,&quot;startArrow&quot;:&quot;none&quot;,&quot;endArrow&quot;:&quot;none&quot;};fontColor=#121212;strokeColor=#000000;" parent="1" vertex="1">
                    <mxGeometry x="827" y="665" width="543" height="315" as="geometry"/>
                </mxCell>
                <mxCell id="98" value="" style="edgeStyle=elbowEdgeStyle;elbow=vertical;startArrow=none;endArrow=none;rounded=0;fontColor=#ADADAD;" parent="97" source="100" target="101" edge="1">
                    <mxGeometry relative="1" as="geometry"/>
                </mxCell>
                <mxCell id="99" value="" style="edgeStyle=elbowEdgeStyle;elbow=vertical;startArrow=none;endArrow=none;rounded=0;fontColor=#ADADAD;" parent="97" source="100" target="102" edge="1">
                    <mxGeometry relative="1" as="geometry"/>
                </mxCell>
                <UserObject label="Origin" treeRoot="1" id="100">
                    <mxCell style="whiteSpace=wrap;html=1;align=center;treeFolding=1;treeMoving=1;newEdgeStyle={&quot;edgeStyle&quot;:&quot;elbowEdgeStyle&quot;,&quot;startArrow&quot;:&quot;none&quot;,&quot;endArrow&quot;:&quot;none&quot;};fontColor=#000000;strokeColor=#0F0F0F;" parent="97" vertex="1">
                        <mxGeometry x="150" y="40" width="120" height="60" as="geometry"/>
                    </mxCell>
                </UserObject>
                <mxCell id="101" value="single" style="whiteSpace=wrap;html=1;align=center;verticalAlign=middle;treeFolding=1;treeMoving=1;newEdgeStyle={&quot;edgeStyle&quot;:&quot;elbowEdgeStyle&quot;,&quot;startArrow&quot;:&quot;none&quot;,&quot;endArrow&quot;:&quot;none&quot;};fontColor=#000000;strokeColor=#000000;" parent="97" vertex="1">
                    <mxGeometry x="20" y="140" width="100" height="60" as="geometry"/>
                </mxCell>
                <mxCell id="102" value="multiple" style="whiteSpace=wrap;html=1;align=center;verticalAlign=middle;treeFolding=1;treeMoving=1;newEdgeStyle={&quot;edgeStyle&quot;:&quot;elbowEdgeStyle&quot;,&quot;startArrow&quot;:&quot;none&quot;,&quot;endArrow&quot;:&quot;none&quot;};fontColor=#000000;strokeColor=#000000;" parent="97" vertex="1">
                    <mxGeometry x="303" y="140" width="100" height="60" as="geometry"/>
                </mxCell>
                <mxCell id="105" value="" style="edgeStyle=elbowEdgeStyle;elbow=vertical;startArrow=none;endArrow=none;rounded=0;fontColor=#ADADAD;" parent="97" source="102" target="106" edge="1">
                    <mxGeometry relative="1" as="geometry">
                        <mxPoint x="1037" y="800" as="sourcePoint"/>
                    </mxGeometry>
                </mxCell>
                <mxCell id="106" value="different scale&lt;br&gt;[deprecate]" style="whiteSpace=wrap;html=1;align=center;verticalAlign=middle;treeFolding=1;treeMoving=1;newEdgeStyle={&quot;edgeStyle&quot;:&quot;elbowEdgeStyle&quot;,&quot;startArrow&quot;:&quot;none&quot;,&quot;endArrow&quot;:&quot;none&quot;};fontColor=#000000;strokeColor=#000000;" parent="97" vertex="1">
                    <mxGeometry x="206.5" y="230" width="100" height="60" as="geometry"/>
                </mxCell>
                <mxCell id="107" value="" style="edgeStyle=elbowEdgeStyle;elbow=vertical;startArrow=none;endArrow=none;rounded=0;fontColor=#ADADAD;" parent="97" source="102" target="108" edge="1">
                    <mxGeometry relative="1" as="geometry">
                        <mxPoint x="1037" y="800" as="sourcePoint"/>
                    </mxGeometry>
                </mxCell>
                <mxCell id="108" value="multiple" style="whiteSpace=wrap;html=1;align=center;verticalAlign=middle;treeFolding=1;treeMoving=1;newEdgeStyle={&quot;edgeStyle&quot;:&quot;elbowEdgeStyle&quot;,&quot;startArrow&quot;:&quot;none&quot;,&quot;endArrow&quot;:&quot;none&quot;};strokeColor=#b85450;fillColor=#f8cecc;" parent="97" vertex="1">
                    <mxGeometry x="393" y="230" width="100" height="60" as="geometry"/>
                </mxCell>
                <mxCell id="109" value="" style="strokeWidth=2;html=1;shape=mxgraph.flowchart.annotation_1;align=left;pointerEvents=1;fillColor=#f8cecc;strokeColor=#b85450;" parent="97" vertex="1">
                    <mxGeometry x="383" y="220" width="50" height="82.5" as="geometry"/>
                </mxCell>
                <mxCell id="113" value="" style="strokeWidth=2;html=1;shape=mxgraph.flowchart.annotation_1;align=left;pointerEvents=1;fillColor=#f8cecc;strokeColor=#b85450;rotation=-180;" parent="97" vertex="1">
                    <mxGeometry x="453" y="218.75" width="50" height="82.5" as="geometry"/>
                </mxCell>
                <mxCell id="115" value="" style="sketch=0;pointerEvents=1;shadow=0;dashed=0;html=1;strokeColor=none;fillColor=#434445;aspect=fixed;labelPosition=center;verticalLabelPosition=bottom;verticalAlign=top;align=center;outlineConnect=0;shape=mxgraph.vvd.networking;fontColor=#000000;" parent="1" vertex="1">
                    <mxGeometry x="1400" y="895" width="50" height="50" as="geometry"/>
                </mxCell>
                <mxCell id="118" value="&lt;h1&gt;MobilitÃ  intra-urbana&lt;/h1&gt;&lt;p&gt;- Cosa si intende con mobilitÃ  intra - urbana? &lt;font color=&quot;#660000&quot;&gt;Quali realtÃ  vengono considerate come appartenenti al contesto urbano?&lt;/font&gt;&lt;/p&gt;&lt;p&gt;&amp;nbsp;- In che modo trattare l'arrivo a Venezia nella descrizione della mobilitÃ  intraurbana?&lt;/p&gt;" style="text;html=1;strokeColor=none;fillColor=none;spacing=5;spacingTop=-20;whiteSpace=wrap;overflow=hidden;rounded=0;fontColor=#000000;" parent="1" vertex="1">
                    <mxGeometry x="850" y="460" width="270" height="145.01" as="geometry"/>
                </mxCell>
                <mxCell id="120" value="&lt;h1&gt;Origini multiple&lt;/h1&gt;&lt;p&gt;Per origini multiple si intendono indicazioni d'origine di un soggetto sostanzalmente divergenti per contenuto.&amp;nbsp;&lt;/p&gt;&lt;p&gt;Esulano dalla casistica indicazioni variate per scala.&lt;/p&gt;&lt;p&gt;Cfr.&amp;nbsp; Processetto di Madonna Elena&lt;/p&gt;" style="text;html=1;strokeColor=none;fillColor=none;spacing=5;spacingTop=-20;whiteSpace=wrap;overflow=hidden;rounded=0;fontSize=10;fontColor=#121212;" parent="1" vertex="1">
                    <mxGeometry x="1470" y="860" width="310" height="120" as="geometry"/>
                </mxCell>
                <mxCell id="124" value="" style="sketch=0;pointerEvents=1;shadow=0;dashed=0;html=1;strokeColor=none;fillColor=#434445;aspect=fixed;labelPosition=center;verticalLabelPosition=bottom;verticalAlign=top;align=center;outlineConnect=0;shape=mxgraph.vvd.nsx;fontSize=10;fontColor=#121212;" parent="1" vertex="1">
                    <mxGeometry x="1490" y="1100" width="77.92" height="60" as="geometry"/>
                </mxCell>
                <mxCell id="125" value="" style="verticalLabelPosition=bottom;verticalAlign=top;html=1;strokeWidth=2;shape=mxgraph.arrows2.arrow;dy=0.6;dx=40;notch=0;fontSize=10;fontColor=#121212;strokeColor=#990000;" parent="1" vertex="1">
                    <mxGeometry x="710" y="800" width="100" height="70" as="geometry"/>
                </mxCell>
                <mxCell id="126" value="Union" style="swimlane;startSize=20;horizontal=1;containerType=tree;newEdgeStyle={&quot;edgeStyle&quot;:&quot;elbowEdgeStyle&quot;,&quot;startArrow&quot;:&quot;none&quot;,&quot;endArrow&quot;:&quot;none&quot;};" parent="1" vertex="1" collapsed="1">
                    <mxGeometry x="200" y="2030" width="490" height="20" as="geometry">
                        <mxRectangle x="200" y="2030" width="490" height="220" as="alternateBounds"/>
                    </mxGeometry>
                </mxCell>
                <mxCell id="127" value="" style="edgeStyle=elbowEdgeStyle;elbow=vertical;startArrow=none;endArrow=none;rounded=0;" parent="126" source="129" target="130" edge="1">
                    <mxGeometry relative="1" as="geometry"/>
                </mxCell>
                <mxCell id="128" value="" style="edgeStyle=elbowEdgeStyle;elbow=vertical;startArrow=none;endArrow=none;rounded=0;" parent="126" source="129" target="131" edge="1">
                    <mxGeometry relative="1" as="geometry"/>
                </mxCell>
                <UserObject label="" treeRoot="1" id="129">
                    <mxCell style="whiteSpace=wrap;html=1;align=center;treeFolding=1;treeMoving=1;newEdgeStyle={&quot;edgeStyle&quot;:&quot;elbowEdgeStyle&quot;,&quot;startArrow&quot;:&quot;none&quot;,&quot;endArrow&quot;:&quot;none&quot;};" parent="126" vertex="1">
                        <mxGeometry x="185" y="40" width="120" height="60" as="geometry"/>
                    </mxCell>
                </UserObject>
                <mxCell id="130" value="" style="whiteSpace=wrap;html=1;align=center;verticalAlign=middle;treeFolding=1;treeMoving=1;newEdgeStyle={&quot;edgeStyle&quot;:&quot;elbowEdgeStyle&quot;,&quot;startArrow&quot;:&quot;none&quot;,&quot;endArrow&quot;:&quot;none&quot;};" parent="126" vertex="1">
                    <mxGeometry x="40" y="140" width="100" height="60" as="geometry"/>
                </mxCell>
                <mxCell id="131" value="" style="whiteSpace=wrap;html=1;align=center;verticalAlign=middle;treeFolding=1;treeMoving=1;newEdgeStyle={&quot;edgeStyle&quot;:&quot;elbowEdgeStyle&quot;,&quot;startArrow&quot;:&quot;none&quot;,&quot;endArrow&quot;:&quot;none&quot;};" parent="126" vertex="1">
                    <mxGeometry x="360" y="140" width="100" height="60" as="geometry"/>
                </mxCell>
                <mxCell id="132" value="" style="shape=curlyBracket;whiteSpace=wrap;html=1;rounded=1;flipH=1;fontSize=10;fontColor=#121212;strokeColor=#990000;size=0.5;" parent="1" vertex="1">
                    <mxGeometry x="1110" y="526" width="20" height="28" as="geometry"/>
                </mxCell>
                <mxCell id="133" value="&lt;font style=&quot;font-size: 12px&quot;&gt;Geographical Place type&amp;nbsp;&lt;/font&gt;" style="text;strokeColor=none;fillColor=none;html=1;fontSize=24;fontStyle=1;verticalAlign=middle;align=center;fontColor=#990000;" parent="1" vertex="1">
                    <mxGeometry x="1161" y="515" width="100" height="40" as="geometry"/>
                </mxCell>
                <mxCell id="134" value="&lt;h1&gt;Professioni multipla&lt;/h1&gt;&lt;p&gt;&lt;br&gt;&lt;/p&gt;" style="text;html=1;strokeColor=none;fillColor=none;spacing=5;spacingTop=-20;whiteSpace=wrap;overflow=hidden;rounded=0;fontSize=12;fontColor=#000000;" parent="1" vertex="1">
                    <mxGeometry x="860" y="1130" width="320" height="120" as="geometry"/>
                </mxCell>
                <mxCell id="135" value="" style="verticalLabelPosition=bottom;verticalAlign=top;html=1;strokeWidth=2;shape=mxgraph.arrows2.arrow;dy=0.6;dx=40;notch=0;fontSize=10;fontColor=#121212;strokeColor=#990000;" parent="1" vertex="1">
                    <mxGeometry x="1340" y="1130" width="100" height="70" as="geometry"/>
                </mxCell>
                <mxCell id="136" value="" style="sketch=0;pointerEvents=1;shadow=0;dashed=0;html=1;strokeColor=none;fillColor=#434445;aspect=fixed;labelPosition=center;verticalLabelPosition=bottom;verticalAlign=top;align=center;outlineConnect=0;shape=mxgraph.vvd.site_container;fontSize=12;fontColor=#000000;" parent="1" vertex="1">
                    <mxGeometry x="1494.31" y="1180" width="69.3" height="70" as="geometry"/>
                </mxCell>
                <mxCell id="137" value="" style="verticalLabelPosition=bottom;verticalAlign=top;html=1;strokeWidth=2;shape=mxgraph.arrows2.arrow;dy=0.6;dx=40;notch=0;fontSize=10;fontColor=#121212;strokeColor=#990000;" parent="1" vertex="1">
                    <mxGeometry x="1840" y="792.5" width="100" height="70" as="geometry"/>
                </mxCell>
                <mxCell id="138" value="" style="sketch=0;pointerEvents=1;shadow=0;dashed=0;html=1;strokeColor=none;fillColor=#434445;aspect=fixed;labelPosition=center;verticalLabelPosition=bottom;verticalAlign=top;align=center;outlineConnect=0;shape=mxgraph.vvd.nsx;fontSize=10;fontColor=#121212;" parent="1" vertex="1">
                    <mxGeometry x="1980" y="760" width="77.92" height="60" as="geometry"/>
                </mxCell>
                <mxCell id="139" value="" style="sketch=0;pointerEvents=1;shadow=0;dashed=0;html=1;strokeColor=none;fillColor=#434445;aspect=fixed;labelPosition=center;verticalLabelPosition=bottom;verticalAlign=top;align=center;outlineConnect=0;shape=mxgraph.vvd.site_container;fontSize=12;fontColor=#000000;" parent="1" vertex="1">
                    <mxGeometry x="1984.31" y="840" width="69.3" height="70" as="geometry"/>
                </mxCell>
                <mxCell id="140" value="" style="verticalLabelPosition=bottom;verticalAlign=top;html=1;strokeWidth=2;shape=mxgraph.arrows2.arrow;dy=0.6;dx=40;notch=0;fontSize=10;fontColor=#121212;strokeColor=#990000;fillColor=#990000;" parent="1" vertex="1">
                    <mxGeometry x="1350" y="492.5" width="100" height="70" as="geometry"/>
                </mxCell>
                <mxCell id="141" value="" style="sketch=0;pointerEvents=1;shadow=0;dashed=0;html=1;strokeColor=none;fillColor=#434445;aspect=fixed;labelPosition=center;verticalLabelPosition=bottom;verticalAlign=top;align=center;outlineConnect=0;shape=mxgraph.vvd.nsx;fontSize=10;fontColor=#121212;" parent="1" vertex="1">
                    <mxGeometry x="1490" y="460" width="77.92" height="60" as="geometry"/>
                </mxCell>
                <mxCell id="142" value="" style="sketch=0;pointerEvents=1;shadow=0;dashed=0;html=1;strokeColor=none;fillColor=#434445;aspect=fixed;labelPosition=center;verticalLabelPosition=bottom;verticalAlign=top;align=center;outlineConnect=0;shape=mxgraph.vvd.site_container;fontSize=12;fontColor=#000000;" parent="1" vertex="1">
                    <mxGeometry x="1494.31" y="540" width="69.3" height="70" as="geometry"/>
                </mxCell>
                <mxCell id="143" value="Listare i geo_place type&lt;br&gt;in localiszation" style="shape=note;strokeWidth=2;fontSize=14;size=20;whiteSpace=wrap;html=1;fillColor=#fff2cc;strokeColor=#d6b656;fontColor=#666600;" parent="1" vertex="1">
                    <mxGeometry x="1640" y="495" width="110.00000000000001" height="80" as="geometry"/>
                </mxCell>
                <mxCell id="144" value="" style="verticalLabelPosition=bottom;verticalAlign=top;html=1;strokeWidth=2;shape=mxgraph.arrows2.arrow;dy=0.6;dx=40;notch=0;fontSize=10;fontColor=#121212;strokeColor=#BDBDBD;rotation=-180;" parent="1" vertex="1">
                    <mxGeometry x="-70" y="685" width="100" height="70" as="geometry"/>
                </mxCell>
                <object label="Person" id="145">
                    <mxCell style="swimlane;fontStyle=0;childLayout=stackLayout;horizontal=1;startSize=30;horizontalStack=0;resizeParent=1;resizeParentMax=0;resizeLast=0;collapsible=1;marginBottom=0;fontSize=12;fontColor=#000000;strokeColor=#000000;glass=0;sketch=0;container=0;" parent="1" vertex="1">
                        <mxGeometry x="-370" y="515" width="270" height="420" as="geometry"/>
                    </mxCell>
                </object>
                <mxCell id="163" value="&lt;font style=&quot;font-size: 10px&quot;&gt;Parrocchia, Sestiere, &lt;br&gt;Area urbana&lt;/font&gt;" style="shape=note;strokeWidth=2;fontSize=14;size=20;whiteSpace=wrap;html=1;fillColor=#fff2cc;strokeColor=#d6b656;fontColor=#666600;glass=0;sketch=0;" parent="1" vertex="1">
                    <mxGeometry x="1171.5" y="552" width="108.5" height="66" as="geometry"/>
                </mxCell>
                <mxCell id="165" value="&lt;span style=&quot;font-size: 10px&quot;&gt;Questo esclude le isole lagunari (Murano, Burano ecc.)&lt;/span&gt;" style="shape=note;strokeWidth=2;fontSize=14;size=20;whiteSpace=wrap;html=1;fillColor=#fff2cc;strokeColor=#d6b656;fontColor=#666600;glass=0;sketch=0;" parent="1" vertex="1">
                    <mxGeometry x="1241" y="585" width="110" height="66" as="geometry"/>
                </mxCell>
                <mxCell id="166" value="Quantifica casi" style="shape=note;strokeWidth=2;fontSize=14;size=20;whiteSpace=wrap;html=1;fillColor=#fff2cc;strokeColor=#d6b656;fontColor=#666600;glass=0;sketch=0;" parent="1" vertex="1">
                    <mxGeometry x="1680" y="960" width="110.00000000000001" height="80" as="geometry"/>
                </mxCell>
                <mxCell id="167" value="Quantifica casi" style="shape=note;strokeWidth=2;fontSize=14;size=20;whiteSpace=wrap;html=1;fillColor=#fff2cc;strokeColor=#d6b656;fontColor=#666600;glass=0;sketch=0;" parent="1" vertex="1">
                    <mxGeometry x="1170" y="1190" width="110.00000000000001" height="80" as="geometry"/>
                </mxCell>
                <mxCell id="146" value="pk_processetto" style="text;strokeColor=none;fillColor=none;align=left;verticalAlign=middle;spacingLeft=4;spacingRight=4;overflow=hidden;points=[[0,0.5],[1,0.5]];portConstraint=eastwest;rotatable=0;fontSize=12;fontColor=#000000;" parent="1" vertex="1">
                    <mxGeometry x="-370" y="545" width="270" height="30" as="geometry"/>
                </mxCell>
                <mxCell id="147" value="pk_person" style="text;strokeColor=none;fillColor=none;align=left;verticalAlign=middle;spacingLeft=4;spacingRight=4;overflow=hidden;points=[[0,0.5],[1,0.5]];portConstraint=eastwest;rotatable=0;fontSize=12;fontColor=#000000;" parent="1" vertex="1">
                    <mxGeometry x="-370" y="575" width="270" height="30" as="geometry"/>
                </mxCell>
                <mxCell id="148" value="person" style="text;strokeColor=none;fillColor=none;align=left;verticalAlign=middle;spacingLeft=4;spacingRight=4;overflow=hidden;points=[[0,0.5],[1,0.5]];portConstraint=eastwest;rotatable=0;fontSize=12;fontColor=#000000;" parent="1" vertex="1">
                    <mxGeometry x="-370" y="605" width="270" height="30" as="geometry"/>
                </mxCell>
                <mxCell id="149" value="genere" style="text;strokeColor=none;fillColor=none;align=left;verticalAlign=middle;spacingLeft=4;spacingRight=4;overflow=hidden;points=[[0,0.5],[1,0.5]];portConstraint=eastwest;rotatable=0;fontSize=12;fontColor=#000000;" parent="1" vertex="1">
                    <mxGeometry x="-370" y="635" width="270" height="30" as="geometry"/>
                </mxCell>
                <mxCell id="150" value="qualitÃ " style="text;strokeColor=none;fillColor=none;align=left;verticalAlign=middle;spacingLeft=4;spacingRight=4;overflow=hidden;points=[[0,0.5],[1,0.5]];portConstraint=eastwest;rotatable=0;fontSize=12;fontColor=#000000;" parent="1" vertex="1">
                    <mxGeometry x="-370" y="665" width="270" height="30" as="geometry"/>
                </mxCell>
                <mxCell id="151" value="anno_nascita" style="text;strokeColor=none;fillColor=none;align=left;verticalAlign=middle;spacingLeft=4;spacingRight=4;overflow=hidden;points=[[0,0.5],[1,0.5]];portConstraint=eastwest;rotatable=0;fontSize=12;fontColor=#000000;" parent="1" vertex="1">
                    <mxGeometry x="-370" y="695" width="270" height="30" as="geometry"/>
                </mxCell>
                <mxCell id="153" value="anno_morte" style="text;strokeColor=none;fillColor=none;align=left;verticalAlign=middle;spacingLeft=4;spacingRight=4;overflow=hidden;points=[[0,0.5],[1,0.5]];portConstraint=eastwest;rotatable=0;fontSize=12;fontColor=#000000;" parent="1" vertex="1">
                    <mxGeometry x="-370" y="725" width="270" height="30" as="geometry"/>
                </mxCell>
                <mxCell id="152" value="etÃ " style="text;strokeColor=none;fillColor=none;align=left;verticalAlign=middle;spacingLeft=4;spacingRight=4;overflow=hidden;points=[[0,0.5],[1,0.5]];portConstraint=eastwest;rotatable=0;fontSize=12;fontColor=#000000;" parent="1" vertex="1">
                    <mxGeometry x="-370" y="755" width="270" height="30" as="geometry"/>
                </mxCell>
                <mxCell id="154" value="occupations" style="text;strokeColor=#b85450;fillColor=#f8cecc;align=left;verticalAlign=middle;spacingLeft=4;spacingRight=4;overflow=hidden;points=[[0,0.5],[1,0.5]];portConstraint=eastwest;rotatable=0;fontSize=12;" parent="1" vertex="1">
                    <mxGeometry x="-370" y="785" width="270" height="30" as="geometry"/>
                </mxCell>
                <mxCell id="155" value="occupation + ID" style="text;strokeColor=none;fillColor=none;align=left;verticalAlign=middle;spacingLeft=4;spacingRight=4;overflow=hidden;points=[[0,0.5],[1,0.5]];portConstraint=eastwest;rotatable=0;fontSize=12;fontColor=#000000;" parent="1" vertex="1">
                    <mxGeometry x="-370" y="815" width="270" height="30" as="geometry"/>
                </mxCell>
                <mxCell id="156" value="origine + ID" style="text;strokeColor=none;fillColor=none;align=left;verticalAlign=middle;spacingLeft=4;spacingRight=4;overflow=hidden;points=[[0,0.5],[1,0.5]];portConstraint=eastwest;rotatable=0;fontSize=12;fontColor=#000000;" parent="1" vertex="1">
                    <mxGeometry x="-370" y="845" width="270" height="30" as="geometry"/>
                </mxCell>
                <mxCell id="157" value="arrivo_venezia (anno)" style="text;strokeColor=none;fillColor=none;align=left;verticalAlign=middle;spacingLeft=4;spacingRight=4;overflow=hidden;points=[[0,0.5],[1,0.5]];portConstraint=eastwest;rotatable=0;fontSize=12;fontColor=#000000;" parent="1" vertex="1">
                    <mxGeometry x="-370" y="875" width="270" height="30" as="geometry"/>
                </mxCell>
                <mxCell id="158" value="ultima_ubicazione" style="text;strokeColor=#b85450;fillColor=#f8cecc;align=left;verticalAlign=middle;spacingLeft=4;spacingRight=4;overflow=hidden;points=[[0,0.5],[1,0.5]];portConstraint=eastwest;rotatable=0;fontSize=12;" parent="1" vertex="1">
                    <mxGeometry x="-370" y="905" width="270" height="30" as="geometry"/>
                </mxCell>
                <mxCell id="169" value="+" style="text;strokeColor=none;fillColor=none;html=1;fontSize=24;fontStyle=1;verticalAlign=middle;align=center;glass=0;sketch=0;fontColor=#000000;" parent="1" vertex="1">
                    <mxGeometry x="-285" y="960" width="100" height="40" as="geometry"/>
                </mxCell>
                <mxCell id="170" value="Person_integration" style="swimlane;fontStyle=0;childLayout=stackLayout;horizontal=1;startSize=30;horizontalStack=0;resizeParent=1;resizeParentMax=0;resizeLast=0;collapsible=1;marginBottom=0;glass=0;sketch=0;fontSize=10;fontColor=#000000;strokeColor=#000000;fillColor=#FFFFFF;" parent="1" vertex="1">
                    <mxGeometry x="-370" y="1008" width="270" height="90" as="geometry"/>
                </mxCell>
                <mxCell id="171" value="data_processetto" style="text;strokeColor=none;fillColor=none;align=left;verticalAlign=middle;spacingLeft=4;spacingRight=4;overflow=hidden;points=[[0,0.5],[1,0.5]];portConstraint=eastwest;rotatable=0;glass=0;sketch=0;fontSize=10;fontColor=#000000;" parent="170" vertex="1">
                    <mxGeometry y="30" width="270" height="30" as="geometry"/>
                </mxCell>
                <mxCell id="172" value="motivation_type" style="text;strokeColor=none;fillColor=none;align=left;verticalAlign=middle;spacingLeft=4;spacingRight=4;overflow=hidden;points=[[0,0.5],[1,0.5]];portConstraint=eastwest;rotatable=0;glass=0;sketch=0;fontSize=10;fontColor=#000000;" parent="170" vertex="1">
                    <mxGeometry y="60" width="270" height="30" as="geometry"/>
                </mxCell>
                <mxCell id="175" value="" style="shape=curlyBracket;whiteSpace=wrap;html=1;rounded=1;glass=0;sketch=0;fontSize=10;strokeColor=#b85450;fillColor=#f8cecc;" parent="1" vertex="1">
                    <mxGeometry x="-434" y="920" width="20" height="120" as="geometry"/>
                </mxCell>
                <mxCell id="176" value="merge&amp;nbsp; on = pk_processetto" style="text;html=1;strokeColor=none;fillColor=none;align=center;verticalAlign=middle;whiteSpace=wrap;rounded=0;glass=0;sketch=0;fontSize=10;fontColor=#990000;" parent="1" vertex="1">
                    <mxGeometry x="-590" y="965" width="140" height="30" as="geometry"/>
                </mxCell>
                <mxCell id="177" value="" style="verticalLabelPosition=bottom;verticalAlign=top;html=1;strokeWidth=2;shape=mxgraph.arrows2.arrow;dy=0.6;dx=40;notch=0;glass=0;sketch=0;fontSize=10;fontColor=#990000;fillColor=#FFFFFF;rotation=90;strokeColor=#990000;" parent="1" vertex="1">
                    <mxGeometry x="-285" y="1155" width="100" height="70" as="geometry"/>
                </mxCell>
                <mxCell id="178" value="" style="edgeStyle=orthogonalEdgeStyle;startArrow=none;endArrow=none;rounded=0;targetPortConstraint=eastwest;sourcePortConstraint=northsouth;fontSize=10;fontColor=#990000;exitX=0.5;exitY=1;exitDx=0;exitDy=0;strokeColor=#990000;" parent="1" source="182" target="180" edge="1">
                    <mxGeometry relative="1" as="geometry">
                        <mxPoint x="-235" y="1340" as="sourcePoint"/>
                    </mxGeometry>
                </mxCell>
                <mxCell id="179" value="" style="edgeStyle=orthogonalEdgeStyle;startArrow=none;endArrow=none;rounded=0;targetPortConstraint=eastwest;sourcePortConstraint=northsouth;fontSize=10;fontColor=#990000;exitX=0.5;exitY=1;exitDx=0;exitDy=0;strokeColor=#990000;" parent="1" source="182" target="181" edge="1">
                    <mxGeometry relative="1" as="geometry">
                        <mxPoint x="-235" y="1340" as="sourcePoint"/>
                    </mxGeometry>
                </mxCell>
                <mxCell id="180" value="etÃ  al momento processetto" style="whiteSpace=wrap;html=1;align=center;verticalAlign=middle;treeFolding=1;treeMoving=1;glass=0;sketch=0;fontSize=10;fontColor=#990000;strokeColor=#990000;fillColor=#FFFFFF;" parent="1" vertex="1">
                    <mxGeometry x="-345" y="1380" width="100" height="60" as="geometry"/>
                </mxCell>
                <mxCell id="181" value="etÃ  al momento dell'arrivo a Venezia" style="whiteSpace=wrap;html=1;align=center;verticalAlign=middle;treeFolding=1;treeMoving=1;glass=0;sketch=0;fontSize=10;fontColor=#990000;strokeColor=#990000;fillColor=#FFFFFF;" parent="1" vertex="1">
                    <mxGeometry x="-225" y="1380" width="100" height="60" as="geometry"/>
                </mxCell>
                <mxCell id="182" value="etÃ  | data_processetto | arrivo_venezia" style="rounded=0;whiteSpace=wrap;html=1;glass=0;sketch=0;fontSize=10;fontColor=#990000;strokeColor=#990000;fillColor=#FFFFFF;" parent="1" vertex="1">
                    <mxGeometry x="-295" y="1270" width="120" height="60" as="geometry"/>
                </mxCell>
                <mxCell id="186" value="" style="edgeStyle=none;html=1;" edge="1" parent="1" source="183" target="185">
                    <mxGeometry relative="1" as="geometry"/>
                </mxCell>
                <mxCell id="183" value="{dict}" style="rounded=0;whiteSpace=wrap;html=1;" vertex="1" parent="1">
                    <mxGeometry x="-1130" y="732.5" width="100" height="60" as="geometry"/>
                </mxCell>
                <mxCell id="185" value="Ultima ubicazione" style="whiteSpace=wrap;html=1;rounded=0;" vertex="1" parent="1">
                    <mxGeometry x="-1410" y="732.5" width="120" height="60" as="geometry"/>
                </mxCell>
                <mxCell id="188" style="edgeStyle=none;html=1;" edge="1" parent="1" source="187" target="185">
                    <mxGeometry relative="1" as="geometry"/>
                </mxCell>
                <mxCell id="189" value="True" style="edgeLabel;html=1;align=center;verticalAlign=middle;resizable=0;points=[];" vertex="1" connectable="0" parent="188">
                    <mxGeometry x="-0.2837" y="1" relative="1" as="geometry">
                        <mxPoint as="offset"/>
                    </mxGeometry>
                </mxCell>
                <mxCell id="193" value="" style="edgeStyle=none;html=1;" edge="1" parent="1" source="187" target="192">
                    <mxGeometry relative="1" as="geometry"/>
                </mxCell>
                <mxCell id="187" value="if len(list)&amp;gt;1" style="rhombus;whiteSpace=wrap;html=1;" vertex="1" parent="1">
                    <mxGeometry x="-1390" y="495" width="80" height="80" as="geometry"/>
                </mxCell>
                <mxCell id="192" value="&lt;font style=&quot;font-size: 12px&quot;&gt;if&amp;nbsp; at_some_time&lt;/font&gt;" style="rhombus;whiteSpace=wrap;html=1;" vertex="1" parent="1">
                    <mxGeometry x="-1550" y="495" width="80" height="80" as="geometry"/>
                </mxCell>
            </root>
        </mxGraphModel>
    </diagram>
</mxfile>